<svg width="32" height="32" viewBox="0 0 32 32" fill="none" xmlns="http://www.w3.org/2000/svg">
  <defs>
    <linearGradient id="carGradient" x1="0%" y1="0%" x2="100%" y2="100%">
      <stop offset="0%" style="stop-color:#3b82f6;stop-opacity:1" />
      <stop offset="100%" style="stop-color:#8b5cf6;stop-opacity:1" />
    </linearGradient>
    <linearGradient id="backgroundGradient" x1="0%" y1="0%" x2="100%" y2="100%">
      <stop offset="0%" style="stop-color:#1e293b;stop-opacity:1" />
      <stop offset="100%" style="stop-color:#0f172a;stop-opacity:1" />
    </linearGradient>
    <linearGradient id="lockGradient" x1="0%" y1="0%" x2="100%" y2="100%">
      <stop offset="0%" style="stop-color:#10b981;stop-opacity:1" />
      <stop offset="100%" style="stop-color:#059669;stop-opacity:1" />
    </linearGradient>
  </defs>
  
  <!-- Background circle -->
  <circle cx="16" cy="16" r="15" fill="url(#backgroundGradient)" stroke="url(#carGradient)" stroke-width="2"/>
  
  <!-- Car body -->
  <rect x="8" y="12" width="16" height="8" rx="2" fill="url(#carGradient)"/>
  
  <!-- Car roof -->
  <path d="M10 12L12 8H20L22 12H10Z" fill="url(#carGradient)"/>
  
  <!-- Wheels -->
  <circle cx="11" cy="22" r="2" fill="#374151"/>
  <circle cx="21" cy="22" r="2" fill="#374151"/>
  
  <!-- Lock icon for privacy -->
  <rect x="14" y="6" width="4" height="6" rx="1" fill="url(#lockGradient)"/>
  <path d="M15 6V4C15 2.5 15.5 2 16 2S17 2.5 17 4V6" stroke="url(#lockGradient)" stroke-width="1" fill="none"/>
  
  <!-- Privacy dots -->
  <circle cx="12" cy="8" r="0.5" fill="url(#lockGradient)"/>
  <circle cx="20" cy="8" r="0.5" fill="url(#lockGradient)"/>
</svg>
